<?xml version="1.0" encoding="UTF-8" standalone="no"?>
<!-- Created with Inkscape (http://www.inkscape.org/) -->

<svg
   width="552.16724mm"
   height="71.860878mm"
   viewBox="0 0 552.16724 71.860878"
   version="1.1"
   id="svg5"
   inkscape:version="1.1.1 (3bf5ae0d25, 2021-09-20)"
   sodipodi:docname="header.svg"
   xmlns:inkscape="http://www.inkscape.org/namespaces/inkscape"
   xmlns:sodipodi="http://sodipodi.sourceforge.net/DTD/sodipodi-0.dtd"
   xmlns="http://www.w3.org/2000/svg"
   xmlns:svg="http://www.w3.org/2000/svg">
  <sodipodi:namedview
     id="namedview7"
     pagecolor="#ffffff"
     bordercolor="#666666"
     borderopacity="1.0"
     inkscape:pageshadow="2"
     inkscape:pageopacity="0.0"
     inkscape:pagecheckerboard="0"
     inkscape:document-units="mm"
     showgrid="false"
     inkscape:zoom="0.56123737"
     inkscape:cx="884.65242"
     inkscape:cy="371.50056"
     inkscape:window-width="1920"
     inkscape:window-height="1011"
     inkscape:window-x="0"
     inkscape:window-y="0"
     inkscape:window-maximized="1"
     inkscape:current-layer="layer1" />
  <defs
     id="defs2" />
  <g
     inkscape:label="Layer 1"
     inkscape:groupmode="layer"
     id="layer1"
     transform="translate(-69.182196,-50.060623)">
    <g
       aria-label="./computurko"
       id="text891"
       style="font-size:70.5556px;line-height:1.25;stroke-width:0.264583">
      <path
         d="m 69.182196,98.003155 q 0,-0.705556 0.388055,-1.128889 0.388056,-0.423334 1.164168,-0.423334 h 9.31334 q 0.599722,0 1.093611,0.423334 0.529167,0.423333 0.529167,1.128889 v 8.537225 q 0,0.635 -0.423333,1.12889 -0.388056,0.49389 -1.199445,0.49389 h -9.31334 q -1.552223,0 -1.552223,-1.62278 z"
         style="font-family:COCOGOOSE;-inkscape-font-specification:COCOGOOSE"
         id="path2149" />
      <path
         d="m 109.36348,57.32785 q 0.28222,-0.635 0.81139,-1.093612 0.56444,-0.458611 1.44639,-0.458611 h 9.77195 q 0.70555,0 1.23472,0.282222 0.56445,0.282223 0.56445,0.81139 0,0.388056 -0.0706,0.458611 l -22.29557,49.28309 q -0.38806,0.88194 -0.74083,1.23472 -0.352781,0.3175 -1.093615,0.3175 H 88.408464 q -1.44639,0 -1.44639,-0.91722 0,-0.0706 0.03528,-0.14111 l 0.105834,-0.49389 z"
         style="font-family:COCOGOOSE;-inkscape-font-specification:COCOGOOSE"
         id="path2151" />
      <path
         d="m 157.79977,94.369542 q 0.49389,-0.352778 0.91722,-0.423334 0.45861,-0.105833 0.70556,-0.105833 0.59972,0 1.09361,0.246944 0.49389,0.246945 1.02305,1.058334 l 3.95112,5.961947 q 0.17639,0.28222 0.3175,0.635 0.17639,0.35278 0.17639,0.56445 0,0.81139 -0.52917,1.34055 -0.49389,0.49389 -1.09361,0.88195 -2.89278,2.01083 -6.35001,3.24556 -3.42194,1.19944 -7.26722,1.19944 -3.17501,0 -6.13834,-0.81139 -2.92806,-0.81139 -5.46806,-2.29305 -2.54,-1.51695 -4.65667,-3.59834 -2.11667,-2.11667 -3.59834,-4.691948 -1.48166,-2.57528 -2.32833,-5.538615 -0.81139,-2.998613 -0.81139,-6.244171 0,-3.245558 0.81139,-6.244171 0.84667,-2.998613 2.32833,-5.538615 1.48167,-2.575279 3.59834,-4.656669 2.11667,-2.116669 4.65667,-3.598336 2.54,-1.481668 5.46806,-2.293057 2.96333,-0.81139 6.13834,-0.81139 3.84528,0 7.09083,1.023057 3.28084,1.023056 6.13834,3.03389 l -0.10583,-0.105833 q 0.77611,0.458611 1.23472,1.093612 0.45861,0.599723 0.45861,1.516945 0,0.635001 -0.42333,1.305279 l -3.13972,5.326948 q -0.98778,1.728612 -2.3989,1.728612 -0.3175,0 -0.77611,-0.141111 -0.45861,-0.176389 -1.02305,-0.564445 -1.55223,-1.023056 -3.35139,-1.658056 -1.76389,-0.670279 -3.77473,-0.670279 -2.2225,0 -4.09222,0.917223 -1.86973,0.881945 -3.21028,2.434169 -1.30528,1.552223 -2.04612,3.598335 -0.74083,2.046113 -0.74083,4.303892 0,2.328335 0.74083,4.374447 0.74084,2.010835 2.04612,3.492503 1.34055,1.481667 3.21028,2.363613 1.86972,0.846667 4.09222,0.846667 2.01084,0 3.77473,-0.705556 1.76389,-0.705556 3.35139,-1.799168 z"
         style="font-family:COCOGOOSE;-inkscape-font-specification:COCOGOOSE"
         id="path2153" />
      <path
         d="m 171.31105,85.797036 q 0,-3.245558 0.81139,-6.244171 0.84667,-2.998613 2.32834,-5.538615 1.51694,-2.575279 3.59833,-4.656669 2.11667,-2.116669 4.69195,-3.598336 2.57528,-1.481668 5.53862,-2.293057 2.99861,-0.81139 6.24417,-0.81139 4.79778,0 8.99584,1.799168 4.23333,1.76389 7.33778,4.903615 3.13972,3.104446 4.93889,7.337782 1.83445,4.198059 1.83445,9.101673 0,3.245558 -0.84667,6.244171 -0.81139,2.963335 -2.32833,5.538615 -1.48167,2.575278 -3.59834,4.691948 -2.08139,2.08139 -4.65667,3.59834 -2.57528,1.48166 -5.53861,2.29305 -2.92806,0.81139 -6.13834,0.81139 -3.24556,0 -6.24417,-0.81139 -2.96334,-0.81139 -5.53862,-2.29305 -2.57528,-1.51695 -4.69195,-3.59834 -2.08139,-2.11667 -3.59833,-4.691948 -1.48167,-2.57528 -2.32834,-5.538615 -0.81139,-2.998613 -0.81139,-6.244171 z m 12.8764,0 q 0,2.328335 0.70556,4.374447 0.74083,2.010835 2.04611,3.492503 1.34056,1.481667 3.21028,2.363613 1.905,0.846667 4.26861,0.846667 2.29306,0 4.12751,-0.846667 1.86972,-0.881946 3.13972,-2.363613 1.30528,-1.481668 1.97556,-3.492503 0.70555,-2.046112 0.70555,-4.374447 0,-2.257779 -0.70555,-4.303892 -0.67028,-2.046112 -1.97556,-3.598335 -1.27,-1.552224 -3.13972,-2.434169 -1.83445,-0.917223 -4.12751,-0.917223 -2.36361,0 -4.26861,0.917223 -1.86972,0.881945 -3.21028,2.434169 -1.30528,1.552223 -2.04611,3.598335 -0.70556,2.046113 -0.70556,4.303892 z"
         style="font-family:COCOGOOSE;-inkscape-font-specification:COCOGOOSE"
         id="path2155" />
      <path
         d="m 225.5683,63.960077 q 0.45861,-0.388056 0.9525,-0.493889 0.52917,-0.105834 0.98778,-0.105834 h 5.32695 q 0.635,0 1.09361,0.246945 0.45861,0.211667 0.77611,0.599723 0.3175,0.388055 0.49389,0.881945 0.21167,0.493889 0.38805,1.023056 l 0.74084,3.104446 q 0.52917,-1.093611 1.51694,-2.257779 0.98778,-1.164167 2.50473,-2.116668 1.51694,-0.952501 3.59833,-1.552223 2.11667,-0.635001 4.9389,-0.635001 2.2225,0 4.02167,0.458612 1.83444,0.423333 3.31611,1.305278 1.51694,0.846668 2.75167,2.116668 1.23472,1.234723 2.32833,2.857502 0.67028,-1.093611 1.97556,-2.293057 1.34056,-1.199445 3.175,-2.187223 1.83445,-0.987779 4.09223,-1.622779 2.25778,-0.635001 4.79778,-0.635001 4.02167,0 7.02028,1.552224 2.99861,1.552223 4.97417,4.233336 2.01083,2.681113 2.99861,6.279448 0.98778,3.563058 0.98778,7.620006 v 23.106958 q 0,1.34056 -0.59972,2.04611 -0.56445,0.67028 -1.83445,0.67028 h -8.14917 q -1.51695,0 -2.08139,-0.49389 -0.56444,-0.52916 -0.56444,-2.01083 V 82.339812 q 0,-1.516946 -0.49389,-2.822225 -0.45862,-1.305278 -1.30528,-2.257779 -0.84667,-0.987778 -2.08139,-1.516945 -1.19945,-0.564445 -2.68112,-0.564445 -1.34055,0 -2.54,0.529167 -1.19944,0.529167 -2.11667,1.481668 -0.91722,0.917222 -1.48166,2.257779 -0.52917,1.305278 -0.52917,2.89278 v 23.106958 q 0,1.34056 -0.59972,2.04611 -0.56445,0.67028 -1.83445,0.67028 h -0.74083 -0.28222 -7.12612 q -1.51695,0 -2.08139,-0.49389 -0.56445,-0.52916 -0.56445,-2.01083 V 82.339812 q 0,-1.516946 -0.45861,-2.822225 -0.42333,-1.305278 -1.27,-2.257779 -0.81139,-0.987778 -2.01083,-1.516945 -1.16417,-0.564445 -2.64584,-0.564445 -1.27,0 -2.50472,0.529167 -1.19945,0.493889 -2.18723,1.44639 -0.9525,0.917223 -1.62277,2.222501 -0.635,1.305279 -0.74084,2.89278 V 105.5526 q 0,0.59973 -0.24694,1.19945 -0.21167,0.59972 -0.67028,0.91722 -0.45861,0.28223 -0.88195,0.38806 -0.38805,0.10583 -0.91722,0.10583 h -7.97278 q -1.51695,0 -2.18723,-0.74083 -0.67027,-0.74084 -0.67027,-1.97556 V 65.970912 q 0,-0.670279 0.28222,-1.234723 0.3175,-0.564445 0.84667,-0.881945 z"
         style="font-family:COCOGOOSE;-inkscape-font-specification:COCOGOOSE"
         id="path2157" />
      <path
         d="m 300.74518,63.783688 q 0.45861,-0.388056 0.9525,-0.493889 0.49389,-0.105834 0.9525,-0.105834 h 5.32695 q 0.67028,0 1.09361,0.211667 0.45861,0.211667 0.74083,0.599723 0.28223,0.352778 0.45862,0.846667 0.21166,0.458611 0.38805,1.023056 l 1.48167,4.268614 q 0.98778,-1.270001 1.97556,-2.575279 1.02305,-1.340557 2.39889,-2.398891 1.37583,-1.093612 3.28083,-1.799168 1.905,-0.705556 4.65667,-0.705556 4.83306,0 8.89001,1.799168 4.09222,1.76389 7.02028,4.903615 2.96334,3.104446 4.62139,7.337782 1.65806,4.198059 1.65806,9.101673 0,4.868337 -1.65806,9.101673 -1.65805,4.233336 -4.62139,7.373061 -2.92806,3.10445 -7.02028,4.90361 -4.05695,1.79917 -8.89001,1.79917 -2.29306,0 -3.95111,-0.56444 -1.65806,-0.52917 -2.96334,-1.41112 -1.27,-0.88194 -2.25778,-1.94027 -0.98778,-1.05834 -1.94028,-2.11667 v 16.43945 q 0,1.05834 -0.635,1.79917 -0.635,0.74083 -1.97555,0.74083 h -8.07862 q -0.42333,0 -0.91722,-0.17638 -0.49389,-0.17639 -0.91723,-0.49389 -0.42333,-0.3175 -0.70555,-0.81139 -0.28222,-0.45861 -0.28222,-1.05834 V 65.794523 q 0,-0.705556 0.24694,-1.164168 0.28222,-0.458611 0.67028,-0.846667 z m 32.94947,22.013348 q 0,-2.257779 -0.74084,-4.268614 -0.74083,-2.046112 -2.08139,-3.563058 -1.34056,-1.516945 -3.21028,-2.39889 -1.86972,-0.881945 -4.1275,-0.881945 -2.2225,0 -4.23334,0.846667 -1.97555,0.811389 -3.4925,2.257779 -1.48167,1.411112 -2.43417,3.351391 -0.91722,1.940279 -1.02305,4.127503 v 0.529167 q 0,2.328335 0.88194,4.374447 0.88195,2.046113 2.39889,3.563058 1.51695,1.481668 3.56306,2.363613 2.04611,0.881945 4.33917,0.881945 2.25778,0 4.1275,-0.881945 1.86972,-0.881945 3.21028,-2.363613 1.34056,-1.516945 2.08139,-3.563058 0.74084,-2.046112 0.74084,-4.374447 z"
         style="font-family:COCOGOOSE;-inkscape-font-specification:COCOGOOSE"
         id="path2159" />
      <path
         d="m 395.28956,107.56344 q -0.45861,0.38806 -0.98777,0.49389 -0.49389,0.10583 -0.95251,0.10583 h -5.32694 q -0.635,0 -1.09362,-0.21166 -0.45861,-0.24695 -0.77611,-0.63501 -0.3175,-0.38805 -0.52916,-0.88194 -0.21167,-0.49389 -0.35278,-1.02306 l -0.74084,-3.45722 q -0.52916,1.09361 -1.76389,2.32833 -1.23472,1.19945 -3.06916,2.22251 -1.79917,1.02305 -4.16279,1.69333 -2.36361,0.67028 -5.15055,0.67028 -4.02167,0 -7.12612,-1.55223 -3.10445,-1.55222 -5.25639,-4.23333 -2.11667,-2.68111 -3.21028,-6.244172 -1.09361,-3.598336 -1.09361,-7.655283 v -23.10696 q 0,-1.340556 0.56444,-2.010835 0.59972,-0.705556 1.86972,-0.705556 h 8.14918 q 1.51694,0 2.08139,0.529167 0.56444,0.49389 0.56444,1.975557 v 22.965849 q 0,1.516945 0.56445,2.89278 0.59972,1.340556 1.5875,2.39889 0.98778,1.023056 2.29305,1.622779 1.34056,0.599723 2.82223,0.599723 1.27,0 2.75167,-0.423334 1.48166,-0.423334 2.75167,-1.305279 1.27,-0.917222 2.11666,-2.328334 0.84667,-1.411113 0.84667,-3.386669 V 65.970912 q 0,-0.599723 0.21167,-1.199446 0.24694,-0.599722 0.70555,-0.917222 0.45861,-0.282223 0.84667,-0.388056 0.42333,-0.105834 0.9525,-0.105834 h 7.97278 q 1.51695,0 2.18723,0.740834 0.67028,0.740834 0.67028,1.975557 V 105.5526 q 0,0.67028 -0.3175,1.23473 -0.28223,0.56444 -0.81139,0.88194 z"
         style="font-family:COCOGOOSE;-inkscape-font-specification:COCOGOOSE"
         id="path2161" />
      <path
         d="m 407.38984,56.37535 q 0,-1.093612 0.70555,-1.622779 0.74084,-0.564445 2.08139,-1.058334 l 8.00806,-2.786947 q 0.17639,-0.03528 0.3175,-0.03528 0.17639,0 0.3175,0 1.30528,0 1.72862,0.776111 0.45861,0.740834 0.45861,1.975557 l -0.0353,9.701396 h 4.83306 q 1.12889,0 1.83444,0.670278 0.70556,0.670278 0.70556,2.010834 v 6.808616 q 0,1.481668 -0.70556,2.187224 -0.70555,0.670278 -1.83444,0.670278 h -4.83306 l 0.0353,29.774463 q 0,1.34056 -0.77611,2.04611 -0.77612,0.67028 -2.15195,0.67028 h -7.97278 q -2.71639,0 -2.71639,-2.71639 l -0.0353,-29.774463 h -3.63362 q -2.71639,0 -2.71639,-2.857502 v -6.808616 q 0,-2.681112 2.71639,-2.681112 h 3.63362 z"
         style="font-family:COCOGOOSE;-inkscape-font-specification:COCOGOOSE"
         id="path2163" />
      <path
         d="m 476.5695,107.56344 q -0.45861,0.38806 -0.98778,0.49389 -0.49389,0.10583 -0.9525,0.10583 h -5.32695 q -0.635,0 -1.09361,-0.21166 -0.45861,-0.24695 -0.77611,-0.63501 -0.3175,-0.38805 -0.52917,-0.88194 -0.21166,-0.49389 -0.35277,-1.02306 l -0.74084,-3.45722 q -0.52917,1.09361 -1.76389,2.32833 -1.23472,1.19945 -3.06917,2.22251 -1.79916,1.02305 -4.16278,1.69333 -2.36361,0.67028 -5.15056,0.67028 -4.02167,0 -7.12611,-1.55223 -3.10445,-1.55222 -5.25639,-4.23333 -2.11667,-2.68111 -3.21028,-6.244172 -1.09362,-3.598336 -1.09362,-7.655283 v -23.10696 q 0,-1.340556 0.56445,-2.010835 0.59972,-0.705556 1.86972,-0.705556 h 8.14917 q 1.51695,0 2.08139,0.529167 0.56445,0.49389 0.56445,1.975557 v 22.965849 q 0,1.516945 0.56444,2.89278 0.59973,1.340556 1.5875,2.39889 0.98778,1.023056 2.29306,1.622779 1.34056,0.599723 2.82223,0.599723 1.27,0 2.75166,-0.423334 1.48167,-0.423334 2.75167,-1.305279 1.27,-0.917222 2.11667,-2.328334 0.84667,-1.411113 0.84667,-3.386669 V 65.970912 q 0,-0.599723 0.21167,-1.199446 0.24694,-0.599722 0.70555,-0.917222 0.45861,-0.282223 0.84667,-0.388056 0.42333,-0.105834 0.9525,-0.105834 h 7.97278 q 1.51695,0 2.18723,0.740834 0.67027,0.740834 0.67027,1.975557 V 105.5526 q 0,0.67028 -0.3175,1.23473 -0.28222,0.56444 -0.81139,0.88194 z"
         style="font-family:COCOGOOSE;-inkscape-font-specification:COCOGOOSE"
         id="path2165" />
      <path
         d="m 485.95341,65.970912 q 0,-0.670279 0.24695,-1.164168 0.24694,-0.493889 0.635,-0.811389 0.42333,-0.3175 0.91722,-0.458612 0.52917,-0.176389 1.02306,-0.176389 h 5.32695 q 0.88194,0 1.41111,0.529167 0.52916,0.529167 0.88194,1.340557 0.38806,0.811389 0.67028,1.799168 0.28222,0.987778 0.67028,1.905001 1.05833,-1.164168 2.08139,-2.293057 1.05833,-1.12889 2.25778,-2.010835 1.19944,-0.881945 2.61056,-1.411112 1.44639,-0.564445 3.28083,-0.564445 1.905,0 3.38667,0.282223 1.51695,0.282222 2.8575,0.846667 1.34056,0.529167 2.64584,1.375834 1.34055,0.846667 2.89278,1.975557 1.51694,0.881945 1.51694,2.08139 0,0.776112 -0.59972,1.799168 l -3.21028,5.468059 q -0.9525,1.375835 -2.36361,1.375835 -0.70556,0 -1.5875,-0.388056 -1.51695,-1.481668 -3.10445,-2.187224 -1.55222,-0.740834 -3.56306,-0.740834 -1.37583,0 -2.43417,0.388056 -1.02305,0.388056 -1.86972,1.093612 -0.84667,0.705556 -1.5875,1.693335 -0.74083,0.987778 -1.48167,2.187223 v 25.541127 q 0,1.34056 -0.67028,2.04611 -0.635,0.67028 -2.15194,0.67028 h -7.93751 q -2.75167,0 -2.75167,-2.71639 z"
         style="font-family:COCOGOOSE;-inkscape-font-specification:COCOGOOSE"
         id="path2167" />
      <path
         d="m 526.55806,52.741736 q 0,-0.599723 0.0353,-1.093612 0.0353,-0.493889 0.28222,-0.846667 0.28222,-0.352778 0.84667,-0.529167 0.56444,-0.211667 1.5875,-0.211667 h 8.43139 q 0.67028,0 1.09361,0.246945 0.45861,0.211667 0.70556,0.564445 0.28222,0.352778 0.35278,0.776111 0.10583,0.388056 0.10583,0.740834 v 26.105573 l 12.70001,-14.11112 q 0.91722,-1.023057 2.18722,-1.023057 h 10.83029 q 1.94028,0 1.94028,1.516946 0,0.388056 -0.14111,0.635 -0.10584,0.246945 -0.49389,0.705556 l -14.49918,15.310566 18.23862,23.424458 h -0.0705 q 0.45861,0.45861 0.635,0.9525 0.21167,0.45861 0.21167,0.84667 0,0.81139 -0.45862,1.12889 -0.42333,0.28222 -1.30527,0.28222 h -11.9239 q -0.59972,0 -1.12889,-0.45861 -0.52917,-0.45861 -1.16417,-1.37583 l -11.53584,-16.333626 -3.91584,4.056948 v 11.394728 q 0,0.28222 -0.10583,0.74084 -0.0706,0.45861 -0.35278,0.91722 -0.24694,0.42333 -0.70555,0.74083 -0.45861,0.3175 -1.19945,0.3175 h -8.85473 q -0.635,0 -1.09361,-0.3175 -0.45861,-0.35278 -0.74083,-0.77611 -0.24695,-0.42333 -0.38806,-0.77611 -0.10583,-0.38806 -0.10583,-0.45861 z"
         style="font-family:COCOGOOSE;-inkscape-font-specification:COCOGOOSE"
         id="path2169" />
      <path
         d="m 575.0297,85.797036 q 0,-3.245558 0.81139,-6.244171 0.84666,-2.998613 2.32833,-5.538615 1.51695,-2.575279 3.59834,-4.656669 2.11667,-2.116669 4.69195,-3.598336 2.57527,-1.481668 5.53861,-2.293057 2.99861,-0.81139 6.24417,-0.81139 4.79778,0 8.99584,1.799168 4.23334,1.76389 7.33778,4.903615 3.13973,3.104446 4.9389,7.337782 1.83444,4.198059 1.83444,9.101673 0,3.245558 -0.84667,6.244171 -0.81139,2.963335 -2.32833,5.538615 -1.48167,2.575278 -3.59834,4.691948 -2.08139,2.08139 -4.65667,3.59834 -2.57528,1.48166 -5.53861,2.29305 -2.92806,0.81139 -6.13834,0.81139 -3.24556,0 -6.24417,-0.81139 -2.96334,-0.81139 -5.53861,-2.29305 -2.57528,-1.51695 -4.69195,-3.59834 -2.08139,-2.11667 -3.59834,-4.691948 -1.48167,-2.57528 -2.32833,-5.538615 -0.81139,-2.998613 -0.81139,-6.244171 z m 12.87639,0 q 0,2.328335 0.70556,4.374447 0.74083,2.010835 2.04611,3.492503 1.34056,1.481667 3.21028,2.363613 1.905,0.846667 4.26862,0.846667 2.29305,0 4.1275,-0.846667 1.86972,-0.881946 3.13972,-2.363613 1.30528,-1.481668 1.97556,-3.492503 0.70556,-2.046112 0.70556,-4.374447 0,-2.257779 -0.70556,-4.303892 -0.67028,-2.046112 -1.97556,-3.598335 -1.27,-1.552224 -3.13972,-2.434169 -1.83445,-0.917223 -4.1275,-0.917223 -2.36362,0 -4.26862,0.917223 -1.86972,0.881945 -3.21028,2.434169 -1.30528,1.552223 -2.04611,3.598335 -0.70556,2.046113 -0.70556,4.303892 z"
         style="font-family:COCOGOOSE;-inkscape-font-specification:COCOGOOSE"
         id="path2171" />
    </g>
  </g>
</svg>
