<?xml version="1.0" encoding="UTF-8" standalone="no"?>
<!-- Created with Inkscape (http://www.inkscape.org/) -->

<svg
   width="230.51805mm"
   height="39.150036mm"
   viewBox="0 0 230.51805 39.150037"
   version="1.1"
   id="svg5"
   sodipodi:docname="logo.svg"
   inkscape:version="1.1.1 (3bf5ae0d25, 2021-09-20)"
   xmlns:inkscape="http://www.inkscape.org/namespaces/inkscape"
   xmlns:sodipodi="http://sodipodi.sourceforge.net/DTD/sodipodi-0.dtd"
   xmlns="http://www.w3.org/2000/svg"
   xmlns:svg="http://www.w3.org/2000/svg">
  <sodipodi:namedview
     id="namedview7"
     pagecolor="#ffffff"
     bordercolor="#666666"
     borderopacity="1.0"
     inkscape:pageshadow="2"
     inkscape:pageopacity="0.0"
     inkscape:pagecheckerboard="0"
     inkscape:document-units="mm"
     showgrid="false"
     inkscape:zoom="1.1224747"
     inkscape:cx="456.58043"
     inkscape:cy="159.91451"
     inkscape:window-width="1920"
     inkscape:window-height="1011"
     inkscape:window-x="0"
     inkscape:window-y="0"
     inkscape:window-maximized="1"
     inkscape:current-layer="layer1" />
  <defs
     id="defs2" />
  <g
     inkscape:label="Layer 1"
     inkscape:groupmode="layer"
     id="layer1"
     transform="translate(-55.570875,-68.295784)">
    <g
       aria-label="./computurko"
       id="text495"
       style="font-size:42.3333px;line-height:1.25;stroke-width:0.264583">
      <path
         d="m 58.444083,99.136255 q -0.785481,0 -1.446939,-0.39274 -0.661458,-0.37207 -1.054199,-1.033528 -0.37207,-0.661458 -0.37207,-1.426268 0,-0.764811 0.37207,-1.426269 0.392741,-0.661458 1.054199,-1.033528 0.661458,-0.39274 1.446939,-0.39274 0.76481,0 1.426268,0.39274 0.661458,0.37207 1.033528,1.033528 0.392741,0.661458 0.392741,1.426269 0,0.76481 -0.392741,1.426268 -0.37207,0.661458 -1.033528,1.033528 -0.661458,0.39274 -1.426268,0.39274 z"
         style="font-family:'Cocogoose Classic Trial';-inkscape-font-specification:'Cocogoose Classic Trial weight=860'"
         id="path10373" />
      <path
         d="m 69.192772,97.978704 q -0.248046,0.599446 -0.806151,0.599446 h -3.67936 q -0.227376,0 -0.351399,-0.103352 -0.124024,-0.103353 -0.124024,-0.268718 0,-0.165364 0.08268,-0.330729 L 76.572161,68.89523 q 0.248047,-0.599446 0.785481,-0.599446 h 3.658689 q 0.496093,0 0.496093,0.37207 0,0.165364 -0.08268,0.330729 z"
         style="font-family:'Cocogoose Classic Trial';-inkscape-font-specification:'Cocogoose Classic Trial weight=860'"
         id="path10375" />
      <path
         d="m 93.356654,93.327829 q 0.206706,-0.103353 0.37207,-0.103353 0.289388,0 0.454753,0.227376 l 1.674315,2.459797 q 0.144694,0.165364 0.144694,0.37207 0,0.268717 -0.268718,0.475422 -1.302245,1.11621 -2.914548,1.736327 -1.591633,0.620117 -3.34863,0.620117 -2.604491,0 -4.81624,-1.281575 -2.191079,-1.281574 -3.493325,-3.451983 -1.281574,-2.191079 -1.281574,-4.774898 0,-2.58382 1.281574,-4.754229 1.281575,-2.191079 3.472654,-3.451983 2.21175,-1.281574 4.81624,-1.281574 1.777668,0 3.410642,0.620116 1.632974,0.599447 2.914549,1.694986 0.227376,0.206706 0.227376,0.434082 0,0.206705 -0.144694,0.413411 l -1.653645,2.521808 q -0.186035,0.268717 -0.454752,0.268717 -0.186035,0 -0.37207,-0.124023 -1.819009,-1.46761 -3.865394,-1.46761 -1.384928,0 -2.542479,0.682129 -1.157551,0.682128 -1.83968,1.86035 -0.661457,1.178222 -0.661457,2.563149 0,1.384927 0.682128,2.58382 0.682128,1.178221 1.83968,1.88102 1.157551,0.702799 2.542478,0.702799 2.129068,0 3.824053,-1.426268 z"
         style="font-family:'Cocogoose Classic Trial';-inkscape-font-specification:'Cocogoose Classic Trial weight=860'"
         id="path10377" />
      <path
         d="m 98.131553,89.627799 q 0,-2.60449 1.281574,-4.774899 1.302243,-2.191079 3.513993,-3.451983 2.21175,-1.281574 4.85758,-1.281574 2.62516,0 4.83691,1.281574 2.21175,1.260904 3.49333,3.451983 1.28157,2.170409 1.28157,4.774899 0,2.60449 -1.30224,4.774899 -1.28158,2.170408 -3.49333,3.451983 -2.19108,1.260904 -4.81624,1.260904 -2.64583,0 -4.85758,-1.260904 -2.21175,-1.260904 -3.513993,-3.431313 -1.281574,-2.191079 -1.281574,-4.795569 z m 4.506177,0 q 0,1.384927 0.68213,2.563149 0.68213,1.178222 1.86035,1.881021 1.17822,0.682128 2.58382,0.682128 1.4056,0 2.58382,-0.682128 1.19889,-0.702799 1.88102,-1.86035 0.68213,-1.178222 0.68213,-2.58382 0,-1.405598 -0.68213,-2.58382 -0.68213,-1.198892 -1.88102,-1.88102 -1.17822,-0.702799 -2.58382,-0.702799 -1.4056,0 -2.58382,0.702799 -1.17822,0.682128 -1.86035,1.88102 -0.68213,1.178222 -0.68213,2.58382 z"
         style="font-family:'Cocogoose Classic Trial';-inkscape-font-specification:'Cocogoose Classic Trial weight=860'"
         id="path10379" />
      <path
         d="m 141.91179,80.098672 q 2.08773,0 3.57601,0.971516 1.48828,0.950846 2.25309,2.790526 0.78548,1.819009 0.78548,4.361487 v 9.756503 q 0,0.289388 -0.16537,0.454753 -0.14469,0.144693 -0.41341,0.144693 h -3.32796 q -0.26872,0 -0.43408,-0.165364 -0.16536,-0.165365 -0.16536,-0.434082 V 88.18086 q 0,-1.11621 -0.43409,-1.984373 -0.41341,-0.868164 -1.15755,-1.322916 -0.74414,-0.475423 -1.67431,-0.475423 -1.09554,0 -1.9637,0.496093 -0.8475,0.475423 -1.34359,1.384928 -0.47542,0.888834 -0.47542,2.087726 v 9.611809 q 0,0.268717 -0.16537,0.434082 -0.14469,0.165364 -0.43408,0.165364 h -3.30729 q -0.26872,0 -0.43408,-0.165364 -0.16537,-0.165365 -0.16537,-0.434082 V 88.18086 q 0,-1.136881 -0.43408,-1.984373 -0.41341,-0.868164 -1.15755,-1.322916 -0.74414,-0.475423 -1.69498,-0.475423 -1.07487,0 -1.92237,0.537435 -0.84749,0.516763 -1.32291,1.446939 -0.45475,0.930175 -0.45475,2.129067 v 9.467115 q 0,0.599446 -0.57878,0.599446 h -3.30729 q -0.57877,0 -0.57877,-0.599446 V 81.214882 q 0,-0.268717 0.14469,-0.413411 0.16536,-0.165364 0.45475,-0.165364 h 2.62516 q 0.4961,0 0.57878,0.37207 l 0.3514,1.839679 q 0.88883,-1.302245 2.23242,-2.025714 1.34358,-0.72347 2.93522,-0.72347 2.02571,0 3.49332,0.909505 1.48828,0.909504 2.27376,2.645831 0.78548,-1.653645 2.33578,-2.60449 1.57096,-0.950846 3.47265,-0.950846 z"
         style="font-family:'Cocogoose Classic Trial';-inkscape-font-specification:'Cocogoose Classic Trial weight=860'"
         id="path10381" />
      <path
         d="m 163.69856,80.098672 q 2.45979,0 4.4235,1.240234 1.9637,1.240233 3.05924,3.410642 1.11621,2.170408 1.11621,4.857581 0,2.687172 -1.11621,4.85758 -1.09554,2.170409 -3.05924,3.410642 -1.96371,1.240234 -4.40283,1.240234 -1.86035,0 -3.41064,-0.74414 -1.5503,-0.74414 -2.66651,-2.129068 l 0.0413,10.603993 q 0,0.28939 -0.16537,0.43409 -0.14469,0.16536 -0.43408,0.16536 h -3.32796 q -0.24805,0 -0.41341,-0.16536 -0.1447,-0.16537 -0.1447,-0.43409 V 81.256223 q 0,-0.268717 0.1447,-0.434081 0.16536,-0.165365 0.41341,-0.165365 h 2.72851 q 0.41341,0 0.47543,0.330729 l 0.37207,2.397785 q 1.09554,-1.570963 2.72851,-2.418455 1.65364,-0.868164 3.63802,-0.868164 z m -0.80615,14.634755 q 1.38492,0 2.54247,-0.682129 1.15756,-0.682128 1.83968,-1.86035 0.68213,-1.178222 0.68213,-2.563149 0,-1.426268 -0.68213,-2.60449 -0.68212,-1.198892 -1.86035,-1.881021 -1.15755,-0.702799 -2.54247,-0.702799 -1.42627,0 -2.62517,0.702799 -1.17822,0.682129 -1.88102,1.881021 -0.68212,1.178222 -0.68212,2.60449 0,1.405598 0.68212,2.58382 0.7028,1.157551 1.9017,1.839679 1.19889,0.682129 2.62516,0.682129 z"
         style="font-family:'Cocogoose Classic Trial';-inkscape-font-specification:'Cocogoose Classic Trial weight=860'"
         id="path10383" />
      <path
         d="m 192.01722,80.656777 q 0.57878,0 0.57878,0.599446 v 16.763822 q 0,0.268718 -0.16537,0.434082 -0.14469,0.144694 -0.43408,0.144694 h -2.64583 q -0.47542,0 -0.55811,-0.392741 l -0.3514,-1.839679 q -0.99218,1.302245 -2.48046,2.046385 -1.46761,0.74414 -3.1626,0.74414 -2.21175,0 -3.84472,-0.992187 -1.63298,-0.992186 -2.50114,-2.831866 -0.86816,-1.83968 -0.86816,-4.320147 v -9.735832 q 0,-0.289388 0.16536,-0.434082 0.16537,-0.165364 0.43408,-0.165364 h 3.30729 q 0.28939,0 0.43408,0.165364 0.16537,0.144694 0.16537,0.434082 v 9.777174 q 0,1.054198 0.51676,1.922361 0.53744,0.868164 1.42627,1.384928 0.90951,0.496093 1.9637,0.496093 1.11621,0 2.04639,-0.516764 0.95085,-0.537434 1.50895,-1.467609 0.55811,-0.950846 0.55811,-2.129068 v -9.487786 q 0,-0.599446 0.57877,-0.599446 z"
         style="font-family:'Cocogoose Classic Trial';-inkscape-font-specification:'Cocogoose Classic Trial weight=860'"
         id="path10385" />
      <path
         d="m 195.55189,81.214882 q 0,-0.558105 0.5581,-0.558105 h 2.02572 v -5.105628 q 0,-0.496093 0.47542,-0.661457 l 3.3693,-1.322916 q 0.16537,-0.04134 0.22738,-0.04134 0.2067,0 0.31006,0.144694 0.12402,0.144694 0.12402,0.39274 v 6.593908 h 4.27881 q 0.5581,0 0.5581,0.558105 v 3.162595 q 0,0.558106 -0.5581,0.558106 h -4.27881 v 13.105133 q 0,0.558105 -0.53743,0.558105 h -3.38998 q -0.26871,0 -0.41341,-0.144694 -0.14469,-0.144694 -0.14469,-0.413411 V 84.935583 h -2.04639 q -0.5581,0 -0.5581,-0.558106 z"
         style="font-family:'Cocogoose Classic Trial';-inkscape-font-specification:'Cocogoose Classic Trial weight=860'"
         id="path10387" />
      <path
         d="m 226.4337,80.656777 q 0.57878,0 0.57878,0.599446 v 16.763822 q 0,0.268718 -0.16537,0.434082 -0.14469,0.144694 -0.43408,0.144694 h -2.64583 q -0.47542,0 -0.55811,-0.392741 l -0.35139,-1.839679 q -0.99219,1.302245 -2.48047,2.046385 -1.46761,0.74414 -3.1626,0.74414 -2.21175,0 -3.84472,-0.992187 -1.63297,-0.992186 -2.50114,-2.831866 -0.86816,-1.83968 -0.86816,-4.320147 v -9.735832 q 0,-0.289388 0.16536,-0.434082 0.16537,-0.165364 0.43408,-0.165364 h 3.30729 q 0.28939,0 0.43409,0.165364 0.16536,0.144694 0.16536,0.434082 v 9.777174 q 0,1.054198 0.51676,1.922361 0.53744,0.868164 1.42627,1.384928 0.90951,0.496093 1.96371,0.496093 1.11621,0 2.04638,-0.516764 0.95085,-0.537434 1.50895,-1.467609 0.55811,-0.950846 0.55811,-2.129068 v -9.487786 q 0,-0.599446 0.57877,-0.599446 z"
         style="font-family:'Cocogoose Classic Trial';-inkscape-font-specification:'Cocogoose Classic Trial weight=860'"
         id="path10389" />
      <path
         d="m 246.21542,81.752317 q 0.20671,0.144694 0.20671,0.39274 0,0.186035 -0.12403,0.37207 l -1.55029,2.397785 q -0.14469,0.268717 -0.45475,0.268717 -0.18604,0 -0.28939,-0.103353 l -0.14469,-0.124023 q -0.57878,-0.454752 -1.34359,-0.682128 -0.76481,-0.227376 -1.48828,-0.227376 -1.24023,0 -2.29443,0.599446 -1.03353,0.578775 -1.65365,1.591633 -0.59944,1.012857 -0.59944,2.211749 v 9.529127 q 0,0.599446 -0.57878,0.599446 h -3.30729 q -0.57877,0 -0.57877,-0.599446 V 81.214882 q 0,-0.268717 0.14469,-0.413411 0.16537,-0.165364 0.45475,-0.165364 h 2.62517 q 0.49609,0 0.57877,0.37207 l 0.37207,2.025714 q 0.95085,-1.364257 2.41846,-2.149738 1.48828,-0.806151 3.10058,-0.806151 1.32292,0 2.50114,0.434081 1.19889,0.434082 2.00504,1.240234 z"
         style="font-family:'Cocogoose Classic Trial';-inkscape-font-specification:'Cocogoose Classic Trial weight=860'"
         id="path10391" />
      <path
         d="m 266.07983,97.668646 q 0.14469,0.206705 0.14469,0.413411 0,0.3514 -0.45475,0.454752 h -3.96875 q -0.26871,0.02067 -0.45475,-0.06201 -0.18603,-0.103353 -0.3514,-0.392741 l -5.58105,-7.710118 -1.83968,2.087726 v 5.56038 q 0,0.558105 -0.57877,0.558105 h -3.34863 q -0.55811,0 -0.55811,-0.558105 V 68.874559 q 0,-0.537434 0.55811,-0.537434 h 3.34863 q 0.57877,0 0.57877,0.537434 v 19.492336 l 6.46989,-7.379389 q 0.2067,-0.330729 0.57877,-0.330729 0.10336,0 0.39274,0.04134 h 3.47266 q 0.43408,0.06201 0.43408,0.392741 0,0.206705 -0.16537,0.413411 l -5.80842,6.531896 z"
         style="font-family:'Cocogoose Classic Trial';-inkscape-font-specification:'Cocogoose Classic Trial weight=860'"
         id="path10393" />
      <path
         d="m 266.82397,89.627799 q 0,-2.60449 1.28158,-4.774899 1.30224,-2.191079 3.51399,-3.451983 2.21175,-1.281574 4.85758,-1.281574 2.62516,0 4.83691,1.281574 2.21175,1.260904 3.49333,3.451983 1.28157,2.170409 1.28157,4.774899 0,2.60449 -1.30224,4.774899 -1.28158,2.170408 -3.49333,3.451983 -2.19108,1.260904 -4.81624,1.260904 -2.64583,0 -4.85758,-1.260904 -2.21175,-1.260904 -3.51399,-3.431313 -1.28158,-2.191079 -1.28158,-4.795569 z m 4.50619,0 q 0,1.384927 0.68212,2.563149 0.68213,1.178222 1.86035,1.881021 1.17823,0.682128 2.58382,0.682128 1.4056,0 2.58382,-0.682128 1.1989,-0.702799 1.88102,-1.86035 0.68213,-1.178222 0.68213,-2.58382 0,-1.405598 -0.68213,-2.58382 -0.68212,-1.198892 -1.88102,-1.88102 -1.17822,-0.702799 -2.58382,-0.702799 -1.40559,0 -2.58382,0.702799 -1.17822,0.682128 -1.86035,1.88102 -0.68212,1.178222 -0.68212,2.58382 z"
         style="font-family:'Cocogoose Classic Trial';-inkscape-font-specification:'Cocogoose Classic Trial weight=860'"
         id="path10395" />
    </g>
  </g>
</svg>
